<svg xmlns="http://www.w3.org/2000/svg" xmlns:xlink="http://www.w3.org/1999/xlink" width="500" zoomAndPan="magnify" viewBox="0 0 375 149.999998" height="200" preserveAspectRatio="xMidYMid meet" version="1.0"><defs><g/></defs><g fill="#5e17eb" fill-opacity="1"><g transform="translate(8.449221, 92.624997)"><g><path d="M 25.5625 -29 L 5.40625 -29 L 5.40625 -30.625 L 27.671875 -30.625 L 27.671875 0 L 4.921875 0 L 4.921875 -1.625 Z M 26.046875 -1.625 L 26.046875 -26.921875 L 6.953125 -1.625 Z M 26.046875 -1.625 "/></g></g></g><g fill="#5e17eb" fill-opacity="1"><g transform="translate(41.003415, 92.624997)"><g><path d="M 5.28125 -30.625 L 27.59375 -30.625 L 27.59375 -22.875 L 13.28125 -22.875 L 13.28125 -19.015625 L 25.171875 -19.015625 L 25.171875 -11.65625 L 13.28125 -11.65625 L 13.28125 -7.75 L 27.59375 -7.75 L 27.59375 0 L 5.28125 0 Z M 5.28125 -30.625 "/></g></g></g><g fill="#5e17eb" fill-opacity="1"><g transform="translate(73.557609, 92.624997)"><g><path d="M 28.953125 0 L 5.40625 0 L 5.40625 -30.625 L 17.34375 -30.625 C 19.882812 -30.625 21.960938 -30.171875 23.578125 -29.265625 C 25.160156 -28.378906 26.390625 -27.171875 27.265625 -25.640625 C 28.148438 -24.117188 28.59375 -22.4375 28.59375 -20.59375 C 28.59375 -18.300781 27.890625 -16.253906 26.484375 -14.453125 C 25.078125 -12.648438 23.300781 -11.457031 21.15625 -10.875 Z M 8.1875 -29 L 20.15625 -12.28125 C 22.113281 -12.6875 23.738281 -13.664062 25.03125 -15.21875 C 26.320312 -16.78125 26.96875 -18.570312 26.96875 -20.59375 C 26.96875 -22.207031 26.570312 -23.671875 25.78125 -24.984375 C 24.988281 -26.304688 23.875 -27.320312 22.4375 -28.03125 C 21.144531 -28.675781 19.457031 -29 17.375 -29 Z M 7.046875 -27.9375 L 7.046875 -12.140625 L 18.34375 -12.140625 Z M 7.046875 -1.625 L 25.875 -1.625 L 19.453125 -10.5625 L 18.078125 -10.515625 L 7.046875 -10.515625 Z M 7.046875 -1.625 "/></g></g></g><g fill="#5e17eb" fill-opacity="1"><g transform="translate(106.111802, 92.624997)"><g><path d="M 3.515625 -18.703125 C 3.515625 -20.984375 4.085938 -23.109375 5.234375 -25.078125 C 6.378906 -27.046875 7.925781 -28.597656 9.875 -29.734375 C 11.820312 -30.878906 13.957031 -31.453125 16.28125 -31.453125 C 18.59375 -31.453125 20.722656 -30.878906 22.671875 -29.734375 C 24.628906 -28.597656 26.179688 -27.046875 27.328125 -25.078125 C 28.472656 -23.109375 29.046875 -20.984375 29.046875 -18.703125 L 29.046875 -11.921875 C 29.046875 -9.628906 28.472656 -7.5 27.328125 -5.53125 C 26.179688 -3.570312 24.628906 -2.019531 22.671875 -0.875 C 20.722656 0.269531 18.59375 0.84375 16.28125 0.84375 C 13.957031 0.84375 11.820312 0.269531 9.875 -0.875 C 7.925781 -2.019531 6.378906 -3.570312 5.234375 -5.53125 C 4.085938 -7.5 3.515625 -9.628906 3.515625 -11.921875 Z M 11.53125 -11.921875 C 11.53125 -10.515625 11.96875 -9.3125 12.84375 -8.3125 C 13.726562 -7.3125 14.875 -6.8125 16.28125 -6.8125 C 17.65625 -6.8125 18.78125 -7.3125 19.65625 -8.3125 C 20.539062 -9.3125 20.984375 -10.515625 20.984375 -11.921875 L 20.984375 -18.75 C 20.984375 -20.1875 20.539062 -21.382812 19.65625 -22.34375 C 18.78125 -23.3125 17.65625 -23.796875 16.28125 -23.796875 C 14.875 -23.796875 13.726562 -23.3125 12.84375 -22.34375 C 11.96875 -21.382812 11.53125 -20.1875 11.53125 -18.75 Z M 11.53125 -11.921875 "/></g></g></g><g fill="#5e17eb" fill-opacity="1"><g transform="translate(138.665996, 92.624997)"><g/></g></g><g fill="#5e17eb" fill-opacity="1"><g transform="translate(171.220189, 92.624997)"><g><path d="M 28.640625 -30.625 L 28.640625 -29 L 17.078125 -29 L 17.078125 0 L 15.484375 0 L 15.484375 -29 L 3.921875 -29 L 3.921875 -30.625 Z M 28.640625 -30.625 "/></g></g></g><g fill="#5e17eb" fill-opacity="1"><g transform="translate(203.774383, 92.624997)"><g><path d="M 16.28125 -31.28125 C 18.570312 -31.28125 20.679688 -30.710938 22.609375 -29.578125 C 24.546875 -28.453125 26.078125 -26.921875 27.203125 -24.984375 C 28.335938 -23.054688 28.90625 -20.945312 28.90625 -18.65625 L 28.90625 -11.96875 C 28.90625 -9.675781 28.335938 -7.5625 27.203125 -5.625 C 26.078125 -3.695312 24.546875 -2.164062 22.609375 -1.03125 C 20.679688 0.09375 18.570312 0.65625 16.28125 0.65625 C 13.988281 0.65625 11.875 0.09375 9.9375 -1.03125 C 8.007812 -2.164062 6.476562 -3.695312 5.34375 -5.625 C 4.21875 -7.5625 3.65625 -9.675781 3.65625 -11.96875 L 3.65625 -18.65625 C 3.65625 -20.945312 4.21875 -23.054688 5.34375 -24.984375 C 6.476562 -26.921875 8.007812 -28.453125 9.9375 -29.578125 C 11.875 -30.710938 13.988281 -31.28125 16.28125 -31.28125 Z M 5.28125 -11.96875 C 5.28125 -9.96875 5.769531 -8.125 6.75 -6.4375 C 7.738281 -4.757812 9.070312 -3.425781 10.75 -2.4375 C 12.4375 -1.457031 14.28125 -0.96875 16.28125 -0.96875 C 18.269531 -0.96875 20.109375 -1.457031 21.796875 -2.4375 C 23.484375 -3.425781 24.816406 -4.757812 25.796875 -6.4375 C 26.785156 -8.125 27.28125 -9.96875 27.28125 -11.96875 L 27.28125 -18.65625 C 27.28125 -20.644531 26.785156 -22.484375 25.796875 -24.171875 C 24.816406 -25.859375 23.484375 -27.191406 21.796875 -28.171875 C 20.109375 -29.160156 18.269531 -29.65625 16.28125 -29.65625 C 14.28125 -29.65625 12.4375 -29.160156 10.75 -28.171875 C 9.070312 -27.191406 7.738281 -25.859375 6.75 -24.171875 C 5.769531 -22.484375 5.28125 -20.644531 5.28125 -18.65625 Z M 5.28125 -11.96875 "/></g></g></g><g fill="#5e17eb" fill-opacity="1"><g transform="translate(236.328588, 92.624997)"><g/></g></g><g fill="#5e17eb" fill-opacity="1"><g transform="translate(268.88277, 92.624997)"><g><path d="M 30.71875 0 L 1.84375 0 L 16.28125 -31.28125 Z M 4.40625 -1.625 L 28.15625 -1.625 L 16.28125 -27.40625 Z M 4.40625 -1.625 "/></g></g></g><g fill="#5e17eb" fill-opacity="1"><g transform="translate(301.436953, 92.624997)"><g><path d="M 6.109375 0 L 6.109375 -30.625 L 18.921875 -30.625 C 21.054688 -30.625 22.90625 -30.226562 24.46875 -29.4375 C 26.25 -28.53125 27.664062 -27.234375 28.71875 -25.546875 C 29.78125 -23.859375 30.3125 -22 30.3125 -19.96875 C 30.3125 -17.945312 29.789062 -16.085938 28.75 -14.390625 C 27.707031 -12.691406 26.296875 -11.382812 24.515625 -10.46875 C 22.984375 -9.675781 21.117188 -9.28125 18.921875 -9.28125 L 14.125 -9.28125 L 14.125 0 Z M 6.109375 0 "/></g></g></g><g fill="#5e17eb" fill-opacity="1"><g transform="translate(333.991135, 92.624997)"><g><path d="M 6.109375 0 L 6.109375 -30.625 L 18.921875 -30.625 C 21.054688 -30.625 22.90625 -30.226562 24.46875 -29.4375 C 26.25 -28.53125 27.664062 -27.234375 28.71875 -25.546875 C 29.78125 -23.859375 30.3125 -22 30.3125 -19.96875 C 30.3125 -17.945312 29.789062 -16.085938 28.75 -14.390625 C 27.707031 -12.691406 26.296875 -11.382812 24.515625 -10.46875 C 22.984375 -9.675781 21.117188 -9.28125 18.921875 -9.28125 L 14.125 -9.28125 L 14.125 0 Z M 6.109375 0 "/></g></g></g></svg>