<svg xmlns="http://www.w3.org/2000/svg" xmlns:xlink="http://www.w3.org/1999/xlink" width="100" zoomAndPan="magnify" viewBox="0 0 75 30.000001" height="40" preserveAspectRatio="xMidYMid meet" version="1.0"><defs><g/><clipPath id="5802ad2b4d"><path d="M 1.210938 0 L 73.789062 0 L 73.789062 29.03125 L 1.210938 29.03125 Z M 1.210938 0 " clip-rule="nonzero"/></clipPath></defs><g clip-path="url(#5802ad2b4d)"><path fill="#ffffff" d="M 1.210938 0 L 73.789062 0 L 73.789062 29.03125 L 1.210938 29.03125 Z M 1.210938 0 " fill-opacity="1" fill-rule="nonzero"/><path fill="#ffffff" d="M 1.210938 0 L 73.789062 0 L 73.789062 29.03125 L 1.210938 29.03125 Z M 1.210938 0 " fill-opacity="1" fill-rule="nonzero"/></g><g fill="#0866ff" fill-opacity="1"><g transform="translate(3.001511, 16.69355)"><g><path d="M 8.015625 -8.78125 L 3.65625 -1.75 L 7.71875 -1.75 L 7.71875 0 L 0.171875 0 L 4.515625 -7.015625 L 0.78125 -7.015625 L 0.78125 -8.78125 Z M 8.015625 -8.78125 "/></g></g></g><g fill="#0866ff" fill-opacity="1"><g transform="translate(11.181862, 16.69355)"><g><path d="M 6.15625 -2.46875 L 2.203125 -2.46875 C 2.203125 -2.082031 2.328125 -1.796875 2.578125 -1.609375 C 2.828125 -1.429688 3.097656 -1.34375 3.390625 -1.34375 C 3.691406 -1.34375 3.929688 -1.378906 4.109375 -1.453125 C 4.285156 -1.535156 4.488281 -1.703125 4.71875 -1.953125 L 6.078125 -1.265625 C 5.503906 -0.316406 4.5625 0.15625 3.25 0.15625 C 2.425781 0.15625 1.71875 -0.125 1.125 -0.6875 C 0.539062 -1.25 0.25 -1.925781 0.25 -2.71875 C 0.25 -3.519531 0.539062 -4.203125 1.125 -4.765625 C 1.71875 -5.335938 2.425781 -5.625 3.25 -5.625 C 4.113281 -5.625 4.816406 -5.375 5.359375 -4.875 C 5.898438 -4.375 6.171875 -3.65625 6.171875 -2.71875 C 6.171875 -2.59375 6.164062 -2.507812 6.15625 -2.46875 Z M 2.25 -3.515625 L 4.328125 -3.515625 C 4.285156 -3.796875 4.171875 -4.007812 3.984375 -4.15625 C 3.804688 -4.3125 3.578125 -4.390625 3.296875 -4.390625 C 2.984375 -4.390625 2.734375 -4.304688 2.546875 -4.140625 C 2.367188 -3.984375 2.269531 -3.773438 2.25 -3.515625 Z M 2.25 -3.515625 "/></g></g></g><g fill="#0866ff" fill-opacity="1"><g transform="translate(17.59636, 16.69355)"><g><path d="M 0.640625 0 L 0.640625 -5.453125 L 2.515625 -5.453125 L 2.515625 -4.671875 L 2.546875 -4.671875 C 2.554688 -4.703125 2.578125 -4.738281 2.609375 -4.78125 C 2.640625 -4.820312 2.707031 -4.894531 2.8125 -5 C 2.925781 -5.101562 3.039062 -5.195312 3.15625 -5.28125 C 3.28125 -5.375 3.4375 -5.453125 3.625 -5.515625 C 3.820312 -5.585938 4.019531 -5.625 4.21875 -5.625 C 4.414062 -5.625 4.613281 -5.59375 4.8125 -5.53125 C 5.019531 -5.476562 5.164062 -5.421875 5.25 -5.359375 L 5.40625 -5.28125 L 4.625 -3.6875 C 4.382812 -3.882812 4.054688 -3.984375 3.640625 -3.984375 C 3.410156 -3.984375 3.210938 -3.929688 3.046875 -3.828125 C 2.890625 -3.734375 2.773438 -3.613281 2.703125 -3.46875 C 2.640625 -3.320312 2.59375 -3.195312 2.5625 -3.09375 C 2.53125 -3 2.515625 -2.925781 2.515625 -2.875 L 2.515625 0 Z M 0.640625 0 "/></g></g></g><g fill="#0866ff" fill-opacity="1"><g transform="translate(22.893908, 16.69355)"><g><path d="M 1.15625 -0.640625 C 0.550781 -1.179688 0.25 -1.875 0.25 -2.71875 C 0.25 -3.5625 0.5625 -4.253906 1.1875 -4.796875 C 1.820312 -5.347656 2.601562 -5.625 3.53125 -5.625 C 4.445312 -5.625 5.21875 -5.347656 5.84375 -4.796875 C 6.46875 -4.253906 6.78125 -3.5625 6.78125 -2.71875 C 6.78125 -1.882812 6.472656 -1.195312 5.859375 -0.65625 C 5.253906 -0.113281 4.476562 0.15625 3.53125 0.15625 C 2.550781 0.15625 1.757812 -0.109375 1.15625 -0.640625 Z M 2.609375 -3.640625 C 2.367188 -3.398438 2.25 -3.09375 2.25 -2.71875 C 2.25 -2.34375 2.363281 -2.035156 2.59375 -1.796875 C 2.832031 -1.566406 3.140625 -1.453125 3.515625 -1.453125 C 3.890625 -1.453125 4.191406 -1.570312 4.421875 -1.8125 C 4.660156 -2.050781 4.78125 -2.351562 4.78125 -2.71875 C 4.78125 -3.09375 4.65625 -3.398438 4.40625 -3.640625 C 4.164062 -3.890625 3.867188 -4.015625 3.515625 -4.015625 C 3.160156 -4.015625 2.859375 -3.890625 2.609375 -3.640625 Z M 2.609375 -3.640625 "/></g></g></g><g fill="#0866ff" fill-opacity="1"><g transform="translate(29.92539, 16.69355)"><g/></g></g><g fill="#0866ff" fill-opacity="1"><g transform="translate(32.829469, 16.69355)"><g><path d="M 0.078125 -7.015625 L 0.078125 -8.78125 L 6.25 -8.78125 L 6.25 -7.015625 L 4.171875 -7.015625 L 4.171875 0 L 2.171875 0 L 2.171875 -7.015625 Z M 0.078125 -7.015625 "/></g></g></g><g fill="#0866ff" fill-opacity="1"><g transform="translate(39.169499, 16.69355)"><g><path d="M 1.15625 -0.640625 C 0.550781 -1.179688 0.25 -1.875 0.25 -2.71875 C 0.25 -3.5625 0.5625 -4.253906 1.1875 -4.796875 C 1.820312 -5.347656 2.601562 -5.625 3.53125 -5.625 C 4.445312 -5.625 5.21875 -5.347656 5.84375 -4.796875 C 6.46875 -4.253906 6.78125 -3.5625 6.78125 -2.71875 C 6.78125 -1.882812 6.472656 -1.195312 5.859375 -0.65625 C 5.253906 -0.113281 4.476562 0.15625 3.53125 0.15625 C 2.550781 0.15625 1.757812 -0.109375 1.15625 -0.640625 Z M 2.609375 -3.640625 C 2.367188 -3.398438 2.25 -3.09375 2.25 -2.71875 C 2.25 -2.34375 2.363281 -2.035156 2.59375 -1.796875 C 2.832031 -1.566406 3.140625 -1.453125 3.515625 -1.453125 C 3.890625 -1.453125 4.191406 -1.570312 4.421875 -1.8125 C 4.660156 -2.050781 4.78125 -2.351562 4.78125 -2.71875 C 4.78125 -3.09375 4.65625 -3.398438 4.40625 -3.640625 C 4.164062 -3.890625 3.867188 -4.015625 3.515625 -4.015625 C 3.160156 -4.015625 2.859375 -3.890625 2.609375 -3.640625 Z M 2.609375 -3.640625 "/></g></g></g><g fill="#0866ff" fill-opacity="1"><g transform="translate(46.200982, 16.69355)"><g/></g></g><g fill="#0866ff" fill-opacity="1"><g transform="translate(49.105061, 16.69355)"><g><path d="M 5.09375 -8.78125 L 8.640625 0 L 6.484375 0 L 5.84375 -1.75 L 2.5 -1.75 L 1.84375 0 L -0.296875 0 L 3.25 -8.78125 Z M 5.15625 -3.515625 L 4.1875 -6.0625 L 4.15625 -6.0625 L 3.1875 -3.515625 Z M 5.15625 -3.515625 "/></g></g></g><g fill="#0866ff" fill-opacity="1"><g transform="translate(57.444968, 16.69355)"><g><path d="M 6.25 -4.78125 C 6.757812 -4.226562 7.015625 -3.546875 7.015625 -2.734375 C 7.015625 -1.921875 6.757812 -1.234375 6.25 -0.671875 C 5.738281 -0.117188 5.09375 0.15625 4.3125 0.15625 C 3.582031 0.15625 2.984375 -0.0664062 2.515625 -0.515625 L 2.515625 2.765625 L 0.640625 2.765625 L 0.640625 -5.453125 L 2.5 -5.453125 L 2.5 -4.84375 L 2.515625 -4.84375 C 2.984375 -5.363281 3.582031 -5.625 4.3125 -5.625 C 5.09375 -5.625 5.738281 -5.34375 6.25 -4.78125 Z M 4.640625 -1.8125 C 4.890625 -2.050781 5.015625 -2.359375 5.015625 -2.734375 C 5.015625 -3.109375 4.894531 -3.414062 4.65625 -3.65625 C 4.425781 -3.894531 4.125 -4.015625 3.75 -4.015625 C 3.375 -4.015625 3.066406 -3.890625 2.828125 -3.640625 C 2.597656 -3.398438 2.484375 -3.097656 2.484375 -2.734375 C 2.484375 -2.359375 2.601562 -2.050781 2.84375 -1.8125 C 3.09375 -1.570312 3.394531 -1.453125 3.75 -1.453125 C 4.101562 -1.453125 4.398438 -1.570312 4.640625 -1.8125 Z M 4.640625 -1.8125 "/></g></g></g><g fill="#0866ff" fill-opacity="1"><g transform="translate(64.710475, 16.69355)"><g><path d="M 6.25 -4.78125 C 6.757812 -4.226562 7.015625 -3.546875 7.015625 -2.734375 C 7.015625 -1.921875 6.757812 -1.234375 6.25 -0.671875 C 5.738281 -0.117188 5.09375 0.15625 4.3125 0.15625 C 3.582031 0.15625 2.984375 -0.0664062 2.515625 -0.515625 L 2.515625 2.765625 L 0.640625 2.765625 L 0.640625 -5.453125 L 2.5 -5.453125 L 2.5 -4.84375 L 2.515625 -4.84375 C 2.984375 -5.363281 3.582031 -5.625 4.3125 -5.625 C 5.09375 -5.625 5.738281 -5.34375 6.25 -4.78125 Z M 4.640625 -1.8125 C 4.890625 -2.050781 5.015625 -2.359375 5.015625 -2.734375 C 5.015625 -3.109375 4.894531 -3.414062 4.65625 -3.65625 C 4.425781 -3.894531 4.125 -4.015625 3.75 -4.015625 C 3.375 -4.015625 3.066406 -3.890625 2.828125 -3.640625 C 2.597656 -3.398438 2.484375 -3.097656 2.484375 -2.734375 C 2.484375 -2.359375 2.601562 -2.050781 2.84375 -1.8125 C 3.09375 -1.570312 3.394531 -1.453125 3.75 -1.453125 C 4.101562 -1.453125 4.398438 -1.570312 4.640625 -1.8125 Z M 4.640625 -1.8125 "/></g></g></g></svg>